<mxfile host="app.diagrams.net" agent="Mozilla/5.0 (Windows NT 10.0; Win64; x64) AppleWebKit/537.36 (KHTML, like Gecko) Chrome/131.0.0.0 Safari/537.36 Edg/131.0.0.0" version="25.0.3">
  <diagram id="WI9T0HZ2pTsCkuznbFz-" name="Page-1">
    <mxGraphModel dx="1989" dy="987" grid="1" gridSize="10" guides="1" tooltips="1" connect="1" arrows="1" fold="1" page="1" pageScale="1" pageWidth="1169" pageHeight="827" math="0" shadow="0">
      <root>
        <mxCell id="0" />
        <mxCell id="1" parent="0" />
        <mxCell id="gVImQslBuLLCaa0mT2FJ-1" value="" style="image;aspect=fixed;html=1;points=[];align=center;fontSize=12;image=img/lib/azure2/other/Azure_Communication_Services.svg;" vertex="1" parent="1">
          <mxGeometry x="730" y="620" width="95.19" height="70" as="geometry" />
        </mxCell>
        <mxCell id="gVImQslBuLLCaa0mT2FJ-2" value="" style="image;aspect=fixed;html=1;points=[];align=center;fontSize=12;image=img/lib/azure2/ai_machine_learning/Azure_OpenAI.svg;" vertex="1" parent="1">
          <mxGeometry x="1060" y="287.76" width="68" height="68" as="geometry" />
        </mxCell>
        <mxCell id="gVImQslBuLLCaa0mT2FJ-3" value="" style="image;aspect=fixed;html=1;points=[];align=center;fontSize=12;image=img/lib/azure2/preview/Static_Apps.svg;" vertex="1" parent="1">
          <mxGeometry x="30" y="290" width="80" height="63.53" as="geometry" />
        </mxCell>
        <mxCell id="gVImQslBuLLCaa0mT2FJ-4" value="" style="verticalLabelPosition=bottom;html=1;verticalAlign=top;align=center;strokeColor=none;fillColor=#00BEF2;shape=mxgraph.azure.sql_database;" vertex="1" parent="1">
          <mxGeometry x="230" y="610" width="62" height="80" as="geometry" />
        </mxCell>
        <mxCell id="gVImQslBuLLCaa0mT2FJ-5" value="" style="image;aspect=fixed;html=1;points=[];align=center;fontSize=12;image=img/lib/azure2/compute/Function_Apps.svg;" vertex="1" parent="1">
          <mxGeometry x="511.33" y="286.35" width="78.67" height="69.41" as="geometry" />
        </mxCell>
        <mxCell id="gVImQslBuLLCaa0mT2FJ-8" value="" style="endArrow=classic;html=1;rounded=0;exitX=1.021;exitY=0.531;exitDx=0;exitDy=0;exitPerimeter=0;" edge="1" parent="1" source="gVImQslBuLLCaa0mT2FJ-3" target="gVImQslBuLLCaa0mT2FJ-5">
          <mxGeometry width="50" height="50" relative="1" as="geometry">
            <mxPoint x="170" y="330" as="sourcePoint" />
            <mxPoint x="220" y="280" as="targetPoint" />
          </mxGeometry>
        </mxCell>
        <mxCell id="gVImQslBuLLCaa0mT2FJ-10" value="" style="endArrow=classic;html=1;rounded=0;entryX=0.5;entryY=0;entryDx=0;entryDy=0;entryPerimeter=0;" edge="1" parent="1" target="gVImQslBuLLCaa0mT2FJ-4">
          <mxGeometry width="50" height="50" relative="1" as="geometry">
            <mxPoint x="533.3299999999999" y="330" as="sourcePoint" />
            <mxPoint x="330" y="581.3" as="targetPoint" />
          </mxGeometry>
        </mxCell>
        <mxCell id="gVImQslBuLLCaa0mT2FJ-11" value="" style="endArrow=classic;html=1;rounded=0;entryX=-0.044;entryY=0.561;entryDx=0;entryDy=0;entryPerimeter=0;" edge="1" parent="1" target="gVImQslBuLLCaa0mT2FJ-2">
          <mxGeometry width="50" height="50" relative="1" as="geometry">
            <mxPoint x="580" y="326" as="sourcePoint" />
            <mxPoint x="578.67" y="280" as="targetPoint" />
          </mxGeometry>
        </mxCell>
        <mxCell id="gVImQslBuLLCaa0mT2FJ-12" value="" style="endArrow=classic;html=1;rounded=0;entryX=0.517;entryY=-0.035;entryDx=0;entryDy=0;entryPerimeter=0;" edge="1" parent="1" target="gVImQslBuLLCaa0mT2FJ-1">
          <mxGeometry width="50" height="50" relative="1" as="geometry">
            <mxPoint x="560" y="326.36" as="sourcePoint" />
            <mxPoint x="829.6942300000001" y="610.0000000000001" as="targetPoint" />
          </mxGeometry>
        </mxCell>
        <mxCell id="gVImQslBuLLCaa0mT2FJ-13" value="&lt;font style=&quot;font-size: 18px;&quot;&gt;&quot;User Interface (Static Web App)&quot;&lt;/font&gt;" style="text;html=1;align=center;verticalAlign=middle;whiteSpace=wrap;rounded=0;" vertex="1" parent="1">
          <mxGeometry y="370" width="170" height="46" as="geometry" />
        </mxCell>
        <mxCell id="gVImQslBuLLCaa0mT2FJ-16" value="&lt;font style=&quot;font-size: 18px;&quot;&gt;&quot;Backend Logic (Azure Function)&quot;&lt;/font&gt;" style="text;html=1;align=center;verticalAlign=middle;whiteSpace=wrap;rounded=0;" vertex="1" parent="1">
          <mxGeometry x="480" y="230" width="150" height="30" as="geometry" />
        </mxCell>
        <mxCell id="gVImQslBuLLCaa0mT2FJ-17" value="&lt;font style=&quot;font-size: 18px;&quot;&gt;&quot;AI Response Generation (OpenAI API)&quot;&lt;/font&gt;" style="text;html=1;align=center;verticalAlign=middle;whiteSpace=wrap;rounded=0;" vertex="1" parent="1">
          <mxGeometry x="930" y="370" width="230" height="30" as="geometry" />
        </mxCell>
        <mxCell id="gVImQslBuLLCaa0mT2FJ-19" value="&lt;font style=&quot;font-size: 18px;&quot;&gt;&quot;Data Storage (Azure SQL Database)&lt;/font&gt;" style="text;html=1;align=center;verticalAlign=middle;whiteSpace=wrap;rounded=0;" vertex="1" parent="1">
          <mxGeometry x="100" y="720" width="310" height="30" as="geometry" />
        </mxCell>
        <mxCell id="gVImQslBuLLCaa0mT2FJ-20" value="&lt;font style=&quot;font-size: 18px;&quot;&gt;Email Notification (Azure Communication Service)&quot;&lt;/font&gt;" style="text;html=1;align=center;verticalAlign=middle;whiteSpace=wrap;rounded=0;" vertex="1" parent="1">
          <mxGeometry x="590" y="720" width="412.4" height="30" as="geometry" />
        </mxCell>
        <mxCell id="gVImQslBuLLCaa0mT2FJ-21" value="&lt;font style=&quot;font-size: 18px;&quot;&gt;&quot;Submit Movie Category and Email (Optional)&lt;/font&gt;" style="text;html=1;align=center;verticalAlign=middle;whiteSpace=wrap;rounded=0;" vertex="1" parent="1">
          <mxGeometry x="130" y="270" width="300" height="30" as="geometry" />
        </mxCell>
        <mxCell id="gVImQslBuLLCaa0mT2FJ-22" value="&lt;font style=&quot;font-size: 18px;&quot;&gt;&quot;Request AI Response (Movie Category)&quot;&lt;/font&gt;" style="text;html=1;align=center;verticalAlign=middle;whiteSpace=wrap;rounded=0;" vertex="1" parent="1">
          <mxGeometry x="680" y="280" width="340" height="30" as="geometry" />
        </mxCell>
        <mxCell id="gVImQslBuLLCaa0mT2FJ-23" value="&lt;font style=&quot;font-size: 18px;&quot;&gt;Store Movie Category and AI Response&lt;/font&gt;" style="text;html=1;align=center;verticalAlign=middle;whiteSpace=wrap;rounded=0;rotation=0;" vertex="1" parent="1">
          <mxGeometry x="170" y="430" width="210" height="30" as="geometry" />
        </mxCell>
        <mxCell id="gVImQslBuLLCaa0mT2FJ-24" value="&lt;font style=&quot;font-size: 18px;&quot;&gt;&quot;Send Email with AI Response (if email provided)&quot;&lt;/font&gt;" style="text;html=1;align=center;verticalAlign=middle;whiteSpace=wrap;rounded=0;" vertex="1" parent="1">
          <mxGeometry x="660" y="420" width="170" height="30" as="geometry" />
        </mxCell>
      </root>
    </mxGraphModel>
  </diagram>
</mxfile>
